<svg width="20" height="21" viewBox="0 0 20 21" fill="none" xmlns="http://www.w3.org/2000/svg">
<g clip-path="url(#clip0_14_31)">
<path fill-rule="evenodd" clip-rule="evenodd" d="M10 6.75C7.92893 6.75 6.25 8.42893 6.25 10.5C6.25 12.5711 7.92893 14.25 10 14.25C12.0711 14.25 13.75 12.5711 13.75 10.5C13.7478 8.42982 12.0702 6.75215 10 6.75ZM10 13C8.61929 13 7.5 11.8807 7.5 10.5C7.5 9.11929 8.61929 8 10 8C11.3807 8 12.5 9.11929 12.5 10.5C12.5 11.8807 11.3807 13 10 13ZM16.875 10.6687C16.8781 10.5562 16.8781 10.4438 16.875 10.3313L18.0406 8.875C18.1646 8.71994 18.2075 8.51522 18.1562 8.32344C17.9652 7.60516 17.6793 6.91551 17.3062 6.27266C17.2072 6.10208 17.0334 5.98827 16.8375 5.96562L14.9844 5.75938C14.9073 5.67812 14.8292 5.6 14.75 5.525L14.5312 3.66719C14.5084 3.47109 14.3943 3.2973 14.2234 3.19844C13.5803 2.82605 12.8907 2.5405 12.1727 2.34922C11.9807 2.2982 11.776 2.34141 11.6211 2.46563L10.1687 3.625C10.0562 3.625 9.94375 3.625 9.83125 3.625L8.375 2.46172C8.21994 2.33777 8.01522 2.29486 7.82344 2.34609C7.10527 2.53752 6.41567 2.82335 5.77266 3.19609C5.60208 3.29514 5.48827 3.4689 5.46562 3.66484L5.25938 5.52109C5.17812 5.5987 5.1 5.67682 5.025 5.75547L3.16719 5.96875C2.97109 5.99156 2.7973 6.10569 2.69844 6.27656C2.32605 6.91966 2.0405 7.60925 1.84922 8.32734C1.7982 8.51925 1.84141 8.72398 1.96563 8.87891L3.125 10.3313C3.125 10.4438 3.125 10.5562 3.125 10.6687L1.96172 12.125C1.83777 12.2801 1.79486 12.4848 1.84609 12.6766C2.03718 13.3948 2.32302 14.0845 2.69609 14.7273C2.79514 14.8979 2.9689 15.0117 3.16484 15.0344L5.01797 15.2406C5.09557 15.3219 5.1737 15.4 5.25234 15.475L5.46875 17.3328C5.49156 17.5289 5.60569 17.7027 5.77656 17.8016C6.41966 18.1739 7.10925 18.4595 7.82734 18.6508C8.01925 18.7018 8.22398 18.6586 8.37891 18.5344L9.83125 17.375C9.94375 17.3781 10.0562 17.3781 10.1687 17.375L11.625 18.5406C11.7801 18.6646 11.9848 18.7075 12.1766 18.6562C12.8948 18.4652 13.5845 18.1793 14.2273 17.8062C14.3979 17.7072 14.5117 17.5334 14.5344 17.3375L14.7406 15.4844C14.8219 15.4073 14.9 15.3292 14.975 15.25L16.8328 15.0312C17.0289 15.0084 17.2027 14.8943 17.3016 14.7234C17.6739 14.0803 17.9595 13.3907 18.1508 12.6727C18.2018 12.4807 18.1586 12.276 18.0344 12.1211L16.875 10.6687ZM15.6172 10.1609C15.6305 10.3868 15.6305 10.6132 15.6172 10.8391C15.6079 10.9937 15.6563 11.1463 15.7531 11.2672L16.8617 12.6523C16.7345 13.0566 16.5716 13.4488 16.375 13.8242L14.6094 14.0242C14.4556 14.0413 14.3136 14.1148 14.2109 14.2305C14.0606 14.3996 13.9004 14.5598 13.7312 14.7102C13.6156 14.8129 13.5421 14.9548 13.525 15.1086L13.3289 16.8727C12.9535 17.0694 12.5613 17.2323 12.157 17.3594L10.7711 16.2508C10.6602 16.1622 10.5224 16.114 10.3805 16.1141H10.343C10.1171 16.1273 9.89069 16.1273 9.66484 16.1141C9.51022 16.1048 9.35765 16.1532 9.23672 16.25L7.84766 17.3594C7.44339 17.2322 7.05122 17.0693 6.67578 16.8727L6.47578 15.1094C6.45871 14.9556 6.38522 14.8136 6.26953 14.7109C6.1004 14.5606 5.94023 14.4004 5.78984 14.2312C5.68713 14.1156 5.54517 14.0421 5.39141 14.025L3.62734 13.8281C3.43062 13.4527 3.26774 13.0606 3.14062 12.6562L4.24922 11.2703C4.34602 11.1494 4.39446 10.9968 4.38516 10.8422C4.37188 10.6163 4.37188 10.3899 4.38516 10.1641C4.39446 10.0094 4.34602 9.85687 4.24922 9.73594L3.14062 8.34766C3.26783 7.94339 3.43071 7.55122 3.62734 7.17578L5.39062 6.97578C5.54439 6.95871 5.68635 6.88522 5.78906 6.76953C5.93945 6.6004 6.09962 6.44023 6.26875 6.28984C6.3849 6.18707 6.45869 6.04478 6.47578 5.89062L6.67188 4.12734C7.04727 3.93062 7.43944 3.76774 7.84375 3.64062L9.22969 4.74922C9.35062 4.84602 9.50319 4.89446 9.65781 4.88516C9.88366 4.87188 10.1101 4.87188 10.3359 4.88516C10.4906 4.89446 10.6431 4.84602 10.7641 4.74922L12.1523 3.64062C12.5566 3.76783 12.9488 3.93071 13.3242 4.12734L13.5242 5.89062C13.5413 6.04439 13.6148 6.18635 13.7305 6.28906C13.8996 6.43945 14.0598 6.59962 14.2102 6.76875C14.3129 6.88444 14.4548 6.95793 14.6086 6.975L16.3727 7.17109C16.5694 7.54649 16.7323 7.93866 16.8594 8.34297L15.7508 9.72891C15.653 9.85086 15.6045 10.005 15.6148 10.1609H15.6172Z" fill="#1C1C21"/>
</g>
<defs>
<clipPath id="clip0_14_31">
<rect width="20" height="20" fill="white" transform="translate(0 0.5)"/>
</clipPath>
</defs>
</svg>
